<?xml version="1.0" encoding="utf-8"?>
<svg viewBox="0 0 500 500" xmlns="http://www.w3.org/2000/svg">
  <path d="M 249.275 0 L 436.947 0 C 472.154 0 500 27.865 500 63.053 L 500 250.725 C 500 388.56 388.56 500 250.744 500 L 249.275 500 C 111.44 500 0 388.56 0 250.725 C 0 112.909 111.44 1.469 249.275 0 Z" fill="#148FCC" style=""/>
  <path d="M 246.339 373.895 C 249.275 376.831 253.661 375.363 256.6 372.426 L 335.787 262.454 L 353.372 237.527 C 356.309 233.122 354.84 227.267 351.904 224.329 C 350.434 222.86 348.965 222.86 346.048 222.86 L 227.266 222.86 L 256.6 134.88 C 258.068 131.961 256.6 127.556 253.661 126.087 C 250.744 124.618 246.339 126.087 244.869 129.025 L 165.7 238.996 L 146.628 262.454 C 143.691 266.859 145.16 272.714 148.096 275.652 C 149.564 277.121 151.035 277.121 153.971 277.121 L 272.734 277.121 L 243.4 365.083 C 241.932 368.019 243.4 372.426 246.339 373.895 Z" fill="white" style=""/>
</svg>