<?xml version="1.0" standalone="no"?>
<!DOCTYPE svg PUBLIC "-//W3C//DTD SVG 20010904//EN"
 "http://www.w3.org/TR/2001/REC-SVG-20010904/DTD/svg10.dtd">
<svg version="1.0" xmlns="http://www.w3.org/2000/svg"
 width="500.000000pt" height="173.000000pt" viewBox="0 0 500.000000 173.000000"
 preserveAspectRatio="xMidYMid meet">

<g transform="translate(0.000000,173.000000) scale(0.100000,-0.100000)"
fill="#000000" stroke="none">
<path d="M2702 1478 c-7 -7 -12 -25 -12 -40 0 -18 -5 -28 -15 -28 -8 0 -15 -4
-15 -10 0 -5 7 -10 15 -10 12 0 15 -16 15 -80 0 -47 4 -80 10 -80 6 0 10 34
10 81 l0 80 43 -3 42 -3 5 -75 c5 -73 6 -75 33 -78 15 -2 27 1 27 7 0 6 -9 11
-20 11 -24 0 -33 29 -28 91 2 37 7 45 26 47 28 4 29 22 2 22 -12 0 -24 10 -30
23 -6 16 -9 18 -9 5 -1 -23 -30 -37 -64 -31 -23 5 -28 10 -25 32 2 15 13 30
28 38 l25 13 -25 0 c-15 0 -31 -5 -38 -12z"/>
<path d="M1487 1473 c-11 -10 -8 -231 3 -238 6 -4 10 27 10 85 0 58 4 90 10
88 6 -2 28 -41 50 -88 22 -47 42 -85 45 -85 3 0 23 38 45 85 22 47 44 86 50
88 6 2 10 -30 10 -88 0 -58 4 -89 10 -85 13 8 13 232 0 240 -12 8 -37 -33 -75
-124 -16 -39 -34 -71 -38 -71 -4 0 -29 45 -54 100 -45 97 -52 108 -66 93z"/>
<path d="M1782 1469 c2 -6 8 -10 13 -10 5 0 11 4 13 10 2 6 -4 11 -13 11 -9 0
-15 -5 -13 -11z"/>
<path d="M1790 1321 c0 -54 4 -91 10 -91 6 0 10 35 10 84 0 47 -4 88 -10 91
-6 4 -10 -27 -10 -84z"/>
<path d="M1888 1390 c-14 -11 -28 -33 -32 -50 -8 -41 16 -98 47 -109 26 -10
77 -3 77 10 0 5 -13 6 -29 3 -23 -5 -35 -1 -55 19 -28 28 -33 56 -15 90 16 30
28 37 67 37 17 0 32 5 32 10 0 18 -66 11 -92 -10z"/>
<path d="M2070 1400 c-8 -5 -23 -7 -32 -4 -16 5 -18 -3 -18 -80 0 -51 4 -86
10 -86 6 0 10 26 10 58 0 64 19 102 51 102 10 0 19 5 19 10 0 13 -20 13 -40 0z"/>
<path d="M2158 1390 c-53 -41 -40 -137 21 -158 61 -21 116 23 115 91 -2 74
-79 112 -136 67z m103 -16 c23 -28 17 -93 -10 -115 -32 -26 -57 -24 -88 7 -21
21 -24 32 -20 61 3 19 11 41 18 49 16 19 83 18 100 -2z"/>
<path d="M2347 1392 c-26 -29 -20 -50 22 -76 22 -14 43 -31 47 -37 11 -19 -27
-40 -61 -34 -28 6 -29 5 -11 -10 27 -21 40 -19 72 8 34 30 28 48 -26 82 -52
33 -51 59 3 63 20 2 35 7 32 13 -10 16 -61 10 -78 -9z"/>
<path d="M2495 1385 c-55 -54 -19 -158 54 -158 68 0 108 67 81 134 -23 55 -92
68 -135 24z m109 -17 c23 -33 20 -75 -9 -103 -29 -30 -58 -32 -85 -5 -25 25
-27 86 -3 112 23 26 78 24 97 -4z"/>
<path d="M1472 808 l3 -333 25 0 25 0 3 158 3 157 184 0 184 0 3 -157 3 -158
25 0 25 0 3 333 2 332 -30 0 -30 0 0 -150 0 -150 -185 0 -185 0 0 150 0 150
-30 0 -30 0 2 -332z"/>
<path d="M4170 1136 c0 -12 234 -643 243 -653 5 -7 20 -13 32 -13 20 0 28 12
53 78 184 479 222 580 222 586 0 3 -13 6 -29 6 -33 0 -19 32 -166 -362 -43
-115 -80 -208 -84 -208 -3 0 -51 128 -106 285 l-100 285 -32 0 c-18 0 -33 -2
-33 -4z"/>
<path d="M2715 946 c-16 -7 -41 -25 -54 -40 -33 -35 -41 -33 -41 9 0 32 -2 35
-30 35 l-30 0 2 -347 3 -348 28 -3 27 -3 0 140 c0 78 3 141 6 141 3 0 19 -11
36 -25 55 -46 140 -54 209 -19 42 21 96 91 108 139 6 24 11 75 11 113 0 91
-36 166 -95 199 -46 26 -132 30 -180 9z m152 -56 c94 -59 89 -282 -8 -351 -45
-32 -125 -33 -165 -3 -60 44 -69 67 -69 174 0 84 3 103 21 126 57 77 148 99
221 54z"/>
<path d="M3199 940 c-43 -23 -86 -71 -107 -120 -21 -49 -20 -174 2 -225 37
-87 100 -129 196 -129 87 0 160 31 160 69 l0 25 -38 -19 c-133 -68 -263 -9
-274 124 l-3 38 170 1 170 1 3 42 c6 88 -37 171 -105 199 -47 20 -131 17 -174
-6z m168 -47 c30 -20 50 -58 55 -103 l3 -35 -142 -3 -143 -3 0 26 c0 52 52
118 106 135 36 11 89 4 121 -17z"/>
<path d="M3728 944 c-15 -8 -35 -28 -43 -44 -21 -41 -35 -37 -35 10 0 36 -2
40 -25 40 l-25 0 0 -240 0 -240 24 0 24 0 4 158 c5 176 14 210 69 256 27 23
40 27 71 23 36 -5 38 -4 38 24 0 27 -3 29 -37 29 -21 -1 -50 -7 -65 -16z"/>
<path d="M2060 940 c0 -5 36 -103 81 -217 45 -115 85 -217 89 -228 10 -26 -32
-129 -68 -168 -19 -20 -35 -27 -65 -27 -34 0 -38 -2 -35 -22 2 -18 10 -24 40
-26 51 -4 93 20 124 73 21 37 254 604 254 620 0 3 -13 5 -28 5 -28 0 -30 -4
-103 -200 -41 -110 -78 -198 -83 -197 -5 2 -40 92 -79 200 -69 192 -72 197
-99 197 -15 0 -28 -4 -28 -10z"/>
<path d="M3843 754 c-11 -29 13 -35 133 -32 115 3 119 4 122 26 3 22 2 22
-123 22 -105 0 -127 -3 -132 -16z"/>
</g>
</svg>
