<svg width="60" height="54" fill="none" xmlns="http://www.w3.org/2000/svg"><path d="M12.906 43.47c1.3.8 3.4 1.7 5.6 1.7 2 0 3.9-.6 5.5-1.6l5.9-3.7v13.3c-.9 0-1.9-.3-2.7-.8l-14.3-8.9z" fill="#225086"/><path d="m26.106 2.57-24.5 27.6c-1.9 2.1-1.4 5.4 1.1 6.9 0 0 9.1 5.7 10.2 6.4 1.3.8 3.4 1.7 5.6 1.7 2 0 3.9-.6 5.5-1.6l5.9-3.7-14.2-8.9 14.2-16.1V.97c-1.4 0-2.8.5-3.8 1.6z" fill="#6DF"/><path d="m15.606 30.97.2.1 14.1 8.8v-25l-14.3 16.1z" fill="#CBF8FF"/><path d="M57.006 37.07c2.5-1.5 2.9-4.8 1.1-6.9l-16.1-18.1c-1.3-.6-2.7-.9-4.3-.9-3 0-5.7 1.3-7.5 3.3l-.4.4 14.2 16.1-14.2 8.9v13.3c.9 0 1.9-.3 2.7-.8l24.5-15.3z" fill="#074793"/><path d="M29.906.97v13.9l.4-.4c1.8-2 4.5-3.3 7.5-3.3 1.5 0 3 .3 4.3.9l-8.4-9.5c-1.1-1.1-2.5-1.6-3.8-1.6z" fill="#0294E4"/><path d="m44.106 30.97-14.2-16.1v25l14.2-8.9z" fill="#96BCC2"/></svg>