<svg width="53" height="56" fill="none" xmlns="http://www.w3.org/2000/svg"><path d="M50.731 34.14c-6.511 1.343-6.959-.862-6.959-.862 6.876-10.202 9.75-23.152 7.27-26.321-6.767-8.645-18.48-4.557-18.676-4.45l-.063.01c-1.286-.266-2.726-.425-4.344-.452-2.947-.048-5.181.773-6.877 2.059 0 0-20.895-8.608-19.924 10.826.207 4.134 5.926 31.283 12.748 23.083a125.95 125.95 0 0 1 4.902-5.534c1.196.795 2.629 1.2 4.13 1.054l.117-.099a4.55 4.55 0 0 0 .047 1.168c-1.758 1.963-1.241 2.308-4.754 3.031-3.555.733-1.466 2.037-.103 2.378 1.653.413 5.477.999 8.06-2.618l-.103.412c.689.552 1.172 3.588 1.091 6.34-.08 2.752-.135 4.641.408 6.117.542 1.476 1.083 4.796 5.701 3.806 3.859-.827 5.858-2.97 6.137-6.544.197-2.541.644-2.166.672-4.438l.358-1.075c.414-3.445.066-4.556 2.443-4.04l.578.051c1.75.08 4.04-.281 5.384-.906 2.895-1.343 4.611-3.586 1.758-2.997z" fill="#33678E"/><path d="M32.127 55.18c-3.886.001-5.116-3.075-5.62-4.333-.737-1.844-.897-8.74-.729-14.755a.806.806 0 1 1 1.613.045c-.187 6.7.077 12.766.615 14.11.834 2.084 2.098 3.907 5.671 3.142 3.446-.739 4.672-1.98 5.246-5.31.439-2.544 1.307-9.79 1.415-11.222a.807.807 0 0 1 1.609.121c-.112 1.492-.978 8.731-1.434 11.376-.681 3.95-2.442 5.743-6.498 6.613a9.03 9.03 0 0 1-1.888.214zM11.261 40.292c-.375 0-.715-.07-1.01-.168-2.52-.84-4.914-4.926-7.117-12.144C1.46 22.497.399 16.77.306 14.91.03 9.376 1.457 5.46 4.55 3.269 7.14 1.433 10.772.876 15.343 1.612c3.334.537 5.904 1.578 6.012 1.622a.807.807 0 0 1-.611 1.493C20.626 4.68 10.859.773 5.48 4.588c-2.611 1.851-3.81 5.297-3.562 10.24.078 1.563 1.067 7.138 2.759 12.681 1.955 6.407 4.173 10.447 6.085 11.085.293.097 1.185.395 2.477-1.158a115.121 115.121 0 0 1 4.785-5.393.807.807 0 0 1 1.165 1.116c-.022.024-2.265 2.368-4.709 5.309-1.173 1.41-2.3 1.824-3.219 1.824zM43.725 34.005a.807.807 0 0 1-.668-1.258C49.994 22.454 52.44 10.03 50.36 7.373 47.744 4.03 44.05 2.283 39.378 2.18c-3.455-.076-6.22.807-6.674.963a.813.813 0 0 1-.12.048.807.807 0 0 1-.688-1.454c.302-.182 3.481-1.214 7.28-1.174 5.213.055 9.52 2.066 12.455 5.816.728.93 1.08 2.453 1.048 4.525-.029 1.887-.385 4.204-1.029 6.698-1.405 5.442-4.05 11.29-7.255 16.046a.806.806 0 0 1-.67.356z" fill="#fff"/><path d="M44.082 38.776c-1.2 0-2.276-.169-2.92-.555-.679-.406-.808-.962-.825-1.257-.176-3.094 1.48-3.707 2.399-3.972-.117-.167-.27-.36-.43-.557-.516-.646-1.225-1.531-1.771-2.857-.084-.203-.35-.68-.658-1.232-1.68-3.012-5.175-9.28-2.916-12.509 1.039-1.484 3.087-2.079 6.099-1.772-.4-1.19-1.404-3.396-3.257-5.586-2.15-2.541-5.961-5.59-11.904-5.688-3.018-.05-5.491.876-7.35 2.75-4.166 4.202-4.025 11.85-4.023 11.926a.807.807 0 0 1-1.613.042c-.01-.341-.167-8.4 4.485-13.098 2.18-2.203 5.049-3.29 8.528-3.234 6.482.107 10.654 3.402 13.013 6.148 2.57 2.992 3.832 6.298 3.936 7.403.083.886-.598 1.053-.675 1.069l-.292.006c-3.68-.589-5.09.196-5.624.96-1.68 2.4 1.601 8.284 3.002 10.797.36.646.62 1.112.74 1.403.46 1.112 1.059 1.861 1.54 2.463.429.536.8 1 .937 1.552.07.114.967 1.334 6.02.29 1.327-.273 2.127-.032 2.375.719.48 1.45-2.165 3.12-3.63 3.801-1.304.605-3.384.988-5.186.988zm-2.137-1.968c.196.16 1.028.42 2.667.344 1.483-.07 3.044-.395 3.977-.828 1.085-.503 1.85-1.064 2.297-1.482l-.037.007c-3.314.684-5.662.59-6.979-.278a2.8 2.8 0 0 1-.226-.166c-.11.039-.224.07-.341.104-.746.209-1.45.407-1.358 2.3zM20.574 41.066c-.82 0-1.68-.11-2.571-.333-.256-.064-2.503-.667-2.473-2.104.027-1.314 1.903-1.7 2.61-1.846 2.482-.511 2.642-.715 3.413-1.694.229-.29.513-.652.901-1.085 1.29-1.445 2.509-.94 3.029-.725.815.338 1.495 1.153 1.774 2.128.252.882.131 1.732-.341 2.393-1.535 2.15-3.735 3.266-6.342 3.266zm-3.256-2.361c.234.159.633.352 1.076.462 2.153.54 5.151.577 7.209-2.304.243-.342.169-.78.103-1.012-.14-.49-.486-.934-.841-1.081-.438-.182-.68-.282-1.207.309-.355.396-.611.721-.837 1.008-.985 1.25-1.436 1.675-4.356 2.276-.604.124-.952.25-1.147.342z" fill="#fff"/><path d="M22.94 35.314a.807.807 0 0 1-.797-.684 3.686 3.686 0 0 1-.035-.324c-1.896-.05-3.722-.87-5.112-2.32-1.773-1.85-2.58-4.413-2.214-7.031.395-2.818.247-5.306.168-6.643a14.878 14.878 0 0 1-.037-.83c.001-.246.006-.899 2.132-1.977.748-.38 2.248-1.04 3.889-1.21 2.735-.284 4.54.936 5.08 3.435 1.443 6.673.114 9.626-.857 11.783-.18.399-.35.776-.485 1.14l-.12.325c-.508 1.362-.947 2.538-.814 3.407a.807.807 0 0 1-.798.93zm-6.407-17.597c.006.135.016.305.027.5.083 1.392.237 3.985-.18 6.962-.297 2.125.352 4.2 1.781 5.69 1.124 1.172 2.602 1.821 4.12 1.826.175-.716.456-1.47.759-2.281l.12-.322c.154-.416.335-.817.526-1.242.928-2.06 2.082-4.625.751-10.779-.257-1.188-.875-1.879-1.89-2.112-2.224-.509-5.342 1.162-6.014 1.758z" fill="#fff"/><path d="M20.974 17.372c-.038.264.483.968 1.162 1.062.677.095 1.257-.456 1.294-.72.037-.263-.483-.554-1.162-.648-.678-.095-1.259.043-1.294.306z" fill="#fff"/><path d="M22.282 18.713c-.06 0-.122-.004-.184-.012-.426-.06-.857-.328-1.151-.718-.104-.138-.274-.406-.24-.648a.508.508 0 0 1 .21-.339c.27-.203.8-.279 1.388-.197.36.05.695.154.943.293.436.243.468.518.448.66-.057.408-.703.961-1.414.961zm-1.038-1.29c.041.18.427.675.928.745.508.07.924-.33.986-.475-.059-.086-.37-.284-.928-.361-.55-.077-.9.024-.986.09zM41.611 16.834c.037.264-.483.968-1.162 1.062-.678.094-1.258-.456-1.295-.72-.036-.264.484-.554 1.162-.649.679-.094 1.258.043 1.295.306z" fill="#fff"/><path d="M40.297 18.04c-.668 0-1.232-.533-1.276-.845-.055-.402.6-.707 1.277-.801.677-.094 1.39.02 1.446.421.025.18-.111.457-.348.706-.156.163-.483.446-.928.508a1.22 1.22 0 0 1-.171.012zm.44-1.409c-.121 0-.255.009-.402.03-.708.098-1.064.38-1.048.497.026.18.536.69 1.144.605.364-.051.639-.29.77-.427.205-.216.286-.416.277-.484-.013-.093-.279-.221-.741-.221zM42.588 32.04a.807.807 0 0 1-.67-1.256c1.577-2.354 1.288-4.762 1.008-7.092-.12-.999-.245-2.033-.212-3.027.032-1.021.162-1.863.287-2.677.148-.959.287-1.865.23-2.938a.807.807 0 0 1 1.61-.087c.068 1.24-.091 2.272-.245 3.271-.118.766-.24 1.559-.27 2.483-.028.872.084 1.8.202 2.783.3 2.499.64 5.331-1.268 8.182a.806.806 0 0 1-.672.358z" fill="#fff"/></svg>