<svg width="56" height="38" fill="none" xmlns="http://www.w3.org/2000/svg"><path fill-rule="evenodd" clip-rule="evenodd" d="M12.913 36.846a.83.83 0 0 1-.541.198H1.806c-.335 0-.66-.177-.798-.482a.843.843 0 0 1 .22-.999L20.51 19.325a.909.909 0 0 0 .002-1.388L1.258 1.59c-.234-.2-.37-.504-.317-.806a.84.84 0 0 1 .832-.699H11.94c.195 0 .384.07.54.197l20.983 17.65.19.163c.323.275.331.77.019 1.057l-.208.19-20.552 17.505zM36.704 15.575a.903.903 0 0 0 1.169 0L54.703 1.59c.233-.2.369-.504.316-.806a.841.841 0 0 0-.83-.699H44.02a.853.853 0 0 0-.54.197L31.67 9.909a.903.903 0 0 0-.005 1.378l5.039 4.288zM36.647 21.69a.903.903 0 0 1 1.17 0l17.08 13.95c.234.198.37.503.317.805a.842.842 0 0 1-.832.7H44.214a.853.853 0 0 1-.54-.197l-11.737-9.773a.903.903 0 0 1-.004-1.378l4.714-4.107z" fill="#000"/></svg>