<svg width="58" height="38" fill="none" xmlns="http://www.w3.org/2000/svg"><path d="M42.575 11.839h-.127a4.375 4.375 0 0 1-4.096-2.772C36.4 4.062 31.242.483 25.176.483c-6.588 0-12.11 4.219-13.614 9.903-.312 1.18-1.236 2.146-2.424 2.654C4.103 15.192.674 20.023.993 25.571c.4 6.968 6.877 12.308 14.394 12.308H43.04c7.833 0 14.167-5.961 14.023-13.264-.141-7.168-6.766-12.776-14.488-12.776zm-20.43 13.546-6.52 4.44A1.094 1.094 0 0 1 13.92 29l-.585-7.866a1.093 1.093 0 0 1 1.566-1.065l7.104 3.427c.758.365.836 1.415.14 1.889zm6.016-8.334a4.824 4.824 0 1 1 0-9.648 4.824 4.824 0 0 1 0 9.648zm13.64 11.874-5.725 1.97a1.171 1.171 0 0 1-1.489-.726l-1.97-5.725a1.17 1.17 0 0 1 .726-1.488l5.725-1.971a1.171 1.171 0 0 1 1.489.726l1.97 5.725a1.172 1.172 0 0 1-.726 1.49z" fill="#4E5862"/></svg>