<svg xmlns="http://www.w3.org/2000/svg" xmlns:xlink="http://www.w3.org/1999/xlink" viewBox="0 0 66 53" fill="#fff" fill-rule="evenodd" stroke="#000" stroke-linecap="round" stroke-linejoin="round"><use xlink:href="#A" x=".5" y=".5"/><symbol id="A" overflow="visible"><path d="M.018 16.521c.117-.175.292-.292.467-.408 2.275-1.575 4.667-3.034 7.118-4.376 2.917-1.575 5.95-2.975 9.1-4.142 2.742-1.05 5.542-1.867 8.4-2.567l3.325-.7 3.092-.525c.583-.117 1.225-.058 1.8-.175.758-.175 1.517-.058 2.275-.233h.117l4.96-.175a.44.44 0 0 1 .233.058l-1.634 1.517-1.692 1.517c-.525.525-1.108.933-1.634 1.575.233 0 .408.058.583 0 .292-.058.525-.058.817-.058 1.05 0 2.16-.117 3.2-.292l1.8-.175 2.742-.408 2.8-.467 5.2-1.236c1.207-.347 2.395-.756 3.56-1.225 1.517-.642 2.975-1.342 4.26-2.392.525-.408 1.05-.817 1.46-1.342.117-.117.175-.292.35-.292.058.175 0 .35-.058.525-.875 2.625-1.925 5.134-3.56 7.4-1.168 1.644-2.519 3.151-4.026 4.492-2.8 2.45-5.892 4.26-9.218 5.834-1.984.933-3.967 1.75-5.95 2.567-2.5.992-5.076 1.984-7.7 2.742-1.735.521-3.486.988-5.251 1.4-1.575.408-3.15.758-4.726 1.283h-.058c-.642.175-.583.175-1.108-.233-1.867-1.634-3.9-3.092-6.067-4.317-2.275-1.342-4.677-2.392-7.177-3.267-1.517-.525-3.092-.933-4.726-1.225-.992-.175-1.984-.35-2.975-.467.117-.058 0-.117-.117-.233zm64 6.7c-.175.175-.292.233-.467.233-2.16.35-4.2 1.05-6.242 1.75l-5.6 2.275-3.2 1.46-8.693 4.317-6.7 3.56-1.8.992c-.233.117-.408.233-.7.35-.117-.292-.292-.525-.408-.758s-.292-.467-.408-.7c-1.05-1.925-2.275-3.734-3.617-5.484l-2.015-2.325a1.26 1.26 0 0 1-.233-.292c-.058-.117 0-.175.058-.233.117-.058.233-.117.35-.117l6.3-1.75 6.184-1.342 3.034-.467 3.617-.525 1.8-.175c.7-.117 1.4-.058 2.1-.233h.117l2.684-.175 3.325-.233h10.114c.175-.117.292-.117.408-.117zm-10.9 9.052c0 .175-.175.292-.292.408l-6 6.184-10.345 10.686-1.75 1.867c-.058.058-.117.117-.175.058s-.058-.117-.117-.175c-.292-3.2-1.05-6.242-2.16-9.276 0-.058-.058-.117-.058-.175-.175-.525-.175-.525.292-.7l7-3.034 6.65-2.86 5.6-2.45c.35-.117.642-.292.992-.408.117-.117.233-.175.35-.117zm0 0c0-.058 0-.117.058-.117.117.117-.058.058-.058.117z" stroke="none" fill="#f99e21" fill-rule="nonzero"/></symbol></svg>